<svg xmlns="http://www.w3.org/2000/svg" width="59.141" height="21.989" viewBox="0 0 59.141 21.989"><defs><style>.a{fill:#fff;}</style></defs><path class="a" d="M356.878,408.332l-12.907-12.5a2.935,2.935,0,0,0-4.12.03l-7.118,7.126a1.881,1.881,0,0,1-2.662,0l-7.064-7.064a2.981,2.981,0,0,0-1.758-.875,2.9,2.9,0,0,0-2.407.841l-11.8,11.738-1.254,1.254h0l1.254,1.255,4.074,4.072a3.879,3.879,0,0,0,2.407,1.147,3.766,3.766,0,0,0,2.994-1.1l5.947-5.887h0l7.28,7.791a2.648,2.648,0,0,0,3.871-.03l7.226-8.091h0l6.873,6.522h0a2.316,2.316,0,0,0,3.093-.161l6.063-6.063Zm-29.025-5.051-.556-.126a3.221,3.221,0,0,0-2.993.865L315.265,413a2.01,2.01,0,0,1-2.842,0l-4.124-4.124h0l11.8-11.738a1.139,1.139,0,0,1,1.612,0Zm19.223-1.967h0a3.157,3.157,0,0,0-2.9.685l-.192.194h0l-5.471,5.471a2.285,2.285,0,0,1-3.232,0l-2.357-2.357,8.19-8.19a1.14,1.14,0,0,1,.089-.08l.028-.021.065-.047.035-.021.062-.038.041-.018c.021-.01.04-.021.062-.03l.043-.015.062-.022.046-.012.062-.015h.049c.021,0,.041-.007.062-.009h.217l.059.009a.278.278,0,0,1,.049.007l.062.013.046.012.061.021.044.015.062.028.04.018c.022.01.041.024.062.035l.037.021.062.046.031.022a1.048,1.048,0,0,1,.087.077l4.335,4.2Zm17.855-.8-6.373,6.373-6.936-6.936,3.864-3.862a3.549,3.549,0,0,1,5.019,0Z" transform="translate(-305.79 -395.001)"/></svg>