<svg xmlns="http://www.w3.org/2000/svg" width="24" height="30" viewBox="0 0 1368 1640.27">
    <defs>
        <style>
            .cls-1 {
                fill: #fff;
            }
            
            .cls-2 {
                fill: #5bff97;
            }
            
            .cls-3 {
                fill: #00b369;
            }
            
            .cls-4 {
                fill: #231f20;
            }
            
            .cls-5 {
                fill: #53bd86;
            }
        </style>
    </defs>
    <title>Asset 2</title>
    <g id="Layer_2" data-name="Layer 2">
        <g id="Layer_1-2" data-name="Layer 1">
            <path class="cls-1" d="M684,1374.4,1.54,980.38V330.73L684,0l682.46,330.73V980.38ZM71.54,940,684,1293.57,1296.46,940V374.59L684,77.79,71.54,374.59Z" />
            <path class="cls-2" d="M493.7,480.69v8.94c0,148,190.17,226.91,196.12,229.35V174.36C683.87,180.05,493.7,362.36,493.7,480.69Z" />
            <path class="cls-2" d="M689.82,719v0l-.14,0Z" />
            <path class="cls-2" d="M690,719l-.15,0v0Z" />
            <path class="cls-2" d="M689.68,174.23l.14.13v-.13Z" />
            <path class="cls-3" d="M689.82,174.36V719c6-2.44,196.12-81.38,196.12-229.35v-8.94C885.94,362.36,695.78,180.05,689.82,174.36Z" />
            <path class="cls-2" d="M689.82,174.23v.13l.15-.13Z" />
            <path class="cls-2" d="M686.2,706.51s-79.94-74.38-230.9-64.26S235.6,857.21,140,850.51c0,0,164.93,134.13,307.39,157.46C575.74,1027.56,708.54,931.91,686.2,706.51Z" />
            <path class="cls-3" d="M689.89,701.15s33.26-33.12,112.64-51c31-7,67.78-10.78,110.17-7.94,151,10.11,219.7,215,315.34,208.26,0,0-164.93,134.13-307.39,157.46-104.29,15.91-211.48-44.2-236.08-188.13C678.88,786.58,685.7,743.47,689.89,701.15Z" />
            <polygon class="cls-2" points="688.23 1602.4 0 1205.06 0 1242.92 688.23 1640.27 1368 1247.8 1368 1209.94 688.23 1602.4" />
            <polygon class="cls-2" points="0 1128.42 0 1166.28 688.23 1563.63 1368 1171.16 1368 1133.3 688.23 1525.77 0 1128.42" />
            <polygon class="cls-2" points="688.23 1486.99 1368 1094.52 1368 1056.66 688.23 1449.13 0 1051.78 0 1089.64 688.23 1486.99" />
            <polygon class="cls-1" points="684 737.12 29.31 389.5 43.76 362.27 684 702.22 1324.24 362.27 1338.69 389.5 684 737.12" />
            <rect class="cls-1" x="668.59" y="701.15" width="30.83" height="632.84" />
            <path class="cls-4" d="M684,1374.4,1.54,980.38V330.73L684,0l682.46,330.73V980.38ZM71.54,940,684,1293.57,1296.46,940V374.59L684,77.79,71.54,374.59Z" />
            <rect class="cls-4" x="668.59" y="701.15" width="30.83" height="632.84" />
            <polygon class="cls-5" points="688.23 1602.4 0 1205.06 0 1242.92 688.23 1640.27 1368 1247.8 1368 1209.94 688.23 1602.4" />
            <polygon class="cls-5" points="0 1128.42 0 1166.28 688.23 1563.63 1368 1171.16 1368 1133.3 688.23 1525.77 0 1128.42" />
            <polygon class="cls-5" points="688.23 1486.99 1368 1094.52 1368 1056.66 688.23 1449.13 0 1051.78 0 1089.64 688.23 1486.99" />
            <polygon class="cls-4" points="684 737.12 29.31 389.5 43.76 362.27 684 702.22 1324.24 362.27 1338.69 389.5 684 737.12" />
        </g>
    </g>
</svg>